<mxfile host="app.diagrams.net" agent="Mozilla/5.0 (X11; Ubuntu; Linux x86_64; rv:144.0) Gecko/20100101 Firefox/144.0" version="28.2.8">
  <diagram name="Page-1" id="dos74VPg_hVfTePwWrty">
    <mxGraphModel dx="864" dy="424" grid="1" gridSize="10" guides="1" tooltips="1" connect="1" arrows="1" fold="1" page="1" pageScale="1" pageWidth="850" pageHeight="1100" math="0" shadow="0">
      <root>
        <mxCell id="0" />
        <mxCell id="1" parent="0" />
        <mxCell id="LNUbjjZYUeOd3OKvUDED-29" value="" style="group;fontFamily=Project Font;" parent="1" vertex="1" connectable="0">
          <mxGeometry x="200" y="430" width="40" height="40" as="geometry" />
        </mxCell>
        <mxCell id="LNUbjjZYUeOd3OKvUDED-6" value="" style="whiteSpace=wrap;html=1;aspect=fixed;fontFamily=Project Font;" parent="LNUbjjZYUeOd3OKvUDED-29" vertex="1">
          <mxGeometry width="40" height="40" as="geometry" />
        </mxCell>
        <mxCell id="LNUbjjZYUeOd3OKvUDED-8" value="" style="endArrow=none;html=1;rounded=0;strokeColor=#999999;fontFamily=Project Font;" parent="LNUbjjZYUeOd3OKvUDED-29" edge="1">
          <mxGeometry width="50" height="50" relative="1" as="geometry">
            <mxPoint x="5" y="27.43000000000002" as="sourcePoint" />
            <mxPoint x="35" y="27.43000000000002" as="targetPoint" />
          </mxGeometry>
        </mxCell>
        <mxCell id="LNUbjjZYUeOd3OKvUDED-9" value="" style="endArrow=none;html=1;rounded=0;strokeColor=#999999;fontFamily=Project Font;" parent="LNUbjjZYUeOd3OKvUDED-29" edge="1">
          <mxGeometry width="50" height="50" relative="1" as="geometry">
            <mxPoint x="20" y="27.43000000000002" as="sourcePoint" />
            <mxPoint x="20" y="12.43000000000002" as="targetPoint" />
          </mxGeometry>
        </mxCell>
        <mxCell id="LNUbjjZYUeOd3OKvUDED-10" value="" style="endArrow=none;html=1;rounded=0;strokeColor=light-dark(#000000,#000000);fontFamily=Project Font;" parent="LNUbjjZYUeOd3OKvUDED-29" edge="1">
          <mxGeometry width="50" height="50" relative="1" as="geometry">
            <mxPoint x="15" y="27.43000000000002" as="sourcePoint" />
            <mxPoint x="25" y="27.43000000000002" as="targetPoint" />
          </mxGeometry>
        </mxCell>
        <mxCell id="LNUbjjZYUeOd3OKvUDED-17" value="" style="endArrow=none;html=1;rounded=0;strokeColor=#999999;fontFamily=Project Font;" parent="LNUbjjZYUeOd3OKvUDED-29" edge="1">
          <mxGeometry width="50" height="50" relative="1" as="geometry">
            <mxPoint x="15" y="27.43000000000002" as="sourcePoint" />
            <mxPoint x="15" y="24.93000000000002" as="targetPoint" />
          </mxGeometry>
        </mxCell>
        <mxCell id="LNUbjjZYUeOd3OKvUDED-20" value="" style="endArrow=none;html=1;rounded=0;strokeColor=#999999;fontFamily=Project Font;" parent="LNUbjjZYUeOd3OKvUDED-29" edge="1">
          <mxGeometry width="50" height="50" relative="1" as="geometry">
            <mxPoint x="10" y="27.43000000000002" as="sourcePoint" />
            <mxPoint x="10" y="24.93000000000002" as="targetPoint" />
          </mxGeometry>
        </mxCell>
        <mxCell id="LNUbjjZYUeOd3OKvUDED-21" value="" style="endArrow=none;html=1;rounded=0;strokeColor=#999999;fontFamily=Project Font;" parent="LNUbjjZYUeOd3OKvUDED-29" edge="1">
          <mxGeometry width="50" height="50" relative="1" as="geometry">
            <mxPoint x="25" y="27.43000000000002" as="sourcePoint" />
            <mxPoint x="25" y="24.93000000000002" as="targetPoint" />
          </mxGeometry>
        </mxCell>
        <mxCell id="LNUbjjZYUeOd3OKvUDED-22" value="" style="endArrow=none;html=1;rounded=0;strokeColor=#999999;fontFamily=Project Font;" parent="LNUbjjZYUeOd3OKvUDED-29" edge="1">
          <mxGeometry width="50" height="50" relative="1" as="geometry">
            <mxPoint x="30" y="27.43000000000002" as="sourcePoint" />
            <mxPoint x="30" y="24.93000000000002" as="targetPoint" />
          </mxGeometry>
        </mxCell>
        <mxCell id="LNUbjjZYUeOd3OKvUDED-23" value="" style="endArrow=none;html=1;rounded=0;strokeColor=#999999;fontFamily=Project Font;" parent="LNUbjjZYUeOd3OKvUDED-29" edge="1">
          <mxGeometry width="50" height="50" relative="1" as="geometry">
            <mxPoint x="20" y="17.430000000000017" as="sourcePoint" />
            <mxPoint x="22.5" y="17.430000000000017" as="targetPoint" />
          </mxGeometry>
        </mxCell>
        <mxCell id="LNUbjjZYUeOd3OKvUDED-25" value="" style="endArrow=none;html=1;rounded=0;strokeColor=#999999;fontFamily=Project Font;" parent="LNUbjjZYUeOd3OKvUDED-29" edge="1">
          <mxGeometry width="50" height="50" relative="1" as="geometry">
            <mxPoint x="20" y="22.43000000000002" as="sourcePoint" />
            <mxPoint x="22.5" y="22.43000000000002" as="targetPoint" />
          </mxGeometry>
        </mxCell>
        <mxCell id="LNUbjjZYUeOd3OKvUDED-26" value="" style="endArrow=none;html=1;rounded=0;strokeColor=light-dark(#000000,#000000);fontFamily=Project Font;" parent="LNUbjjZYUeOd3OKvUDED-29" edge="1">
          <mxGeometry width="50" height="50" relative="1" as="geometry">
            <mxPoint x="25" y="27.502000000000024" as="sourcePoint" />
            <mxPoint x="35" y="12.502000000000018" as="targetPoint" />
          </mxGeometry>
        </mxCell>
        <mxCell id="Lc_aUcKj_QxeDapBAkYR-60" value="" style="shape=table;startSize=0;container=1;collapsible=0;childLayout=tableLayout;fontSize=16;fontFamily=Project Font;" vertex="1" parent="1">
          <mxGeometry x="60" y="600" width="120" height="120" as="geometry" />
        </mxCell>
        <mxCell id="Lc_aUcKj_QxeDapBAkYR-61" value="" style="shape=tableRow;horizontal=0;startSize=0;swimlaneHead=0;swimlaneBody=0;strokeColor=inherit;top=0;left=0;bottom=0;right=0;collapsible=0;dropTarget=0;fillColor=none;points=[[0,0.5],[1,0.5]];portConstraint=eastwest;fontSize=16;fontFamily=Project Font;" vertex="1" parent="Lc_aUcKj_QxeDapBAkYR-60">
          <mxGeometry width="120" height="40" as="geometry" />
        </mxCell>
        <mxCell id="Lc_aUcKj_QxeDapBAkYR-62" value="" style="shape=partialRectangle;html=1;whiteSpace=wrap;connectable=0;strokeColor=inherit;overflow=hidden;fillColor=none;top=0;left=0;bottom=0;right=0;pointerEvents=1;fontSize=16;fontFamily=Project Font;" vertex="1" parent="Lc_aUcKj_QxeDapBAkYR-61">
          <mxGeometry width="40" height="40" as="geometry">
            <mxRectangle width="40" height="40" as="alternateBounds" />
          </mxGeometry>
        </mxCell>
        <mxCell id="Lc_aUcKj_QxeDapBAkYR-63" value="" style="shape=partialRectangle;html=1;whiteSpace=wrap;connectable=0;strokeColor=inherit;overflow=hidden;fillColor=none;top=0;left=0;bottom=0;right=0;pointerEvents=1;fontSize=16;fontFamily=Project Font;" vertex="1" parent="Lc_aUcKj_QxeDapBAkYR-61">
          <mxGeometry x="40" width="40" height="40" as="geometry">
            <mxRectangle width="40" height="40" as="alternateBounds" />
          </mxGeometry>
        </mxCell>
        <mxCell id="Lc_aUcKj_QxeDapBAkYR-64" value="" style="shape=partialRectangle;html=1;whiteSpace=wrap;connectable=0;strokeColor=inherit;overflow=hidden;fillColor=none;top=0;left=0;bottom=0;right=0;pointerEvents=1;fontSize=16;fontFamily=Project Font;" vertex="1" parent="Lc_aUcKj_QxeDapBAkYR-61">
          <mxGeometry x="80" width="40" height="40" as="geometry">
            <mxRectangle width="40" height="40" as="alternateBounds" />
          </mxGeometry>
        </mxCell>
        <mxCell id="Lc_aUcKj_QxeDapBAkYR-65" value="" style="shape=tableRow;horizontal=0;startSize=0;swimlaneHead=0;swimlaneBody=0;strokeColor=inherit;top=0;left=0;bottom=0;right=0;collapsible=0;dropTarget=0;fillColor=none;points=[[0,0.5],[1,0.5]];portConstraint=eastwest;fontSize=16;fontFamily=Project Font;" vertex="1" parent="Lc_aUcKj_QxeDapBAkYR-60">
          <mxGeometry y="40" width="120" height="40" as="geometry" />
        </mxCell>
        <mxCell id="Lc_aUcKj_QxeDapBAkYR-66" value="" style="shape=partialRectangle;html=1;whiteSpace=wrap;connectable=0;strokeColor=inherit;overflow=hidden;fillColor=none;top=0;left=0;bottom=0;right=0;pointerEvents=1;fontSize=16;fontFamily=Project Font;" vertex="1" parent="Lc_aUcKj_QxeDapBAkYR-65">
          <mxGeometry width="40" height="40" as="geometry">
            <mxRectangle width="40" height="40" as="alternateBounds" />
          </mxGeometry>
        </mxCell>
        <mxCell id="Lc_aUcKj_QxeDapBAkYR-67" value="" style="shape=partialRectangle;html=1;whiteSpace=wrap;connectable=0;strokeColor=inherit;overflow=hidden;fillColor=none;top=0;left=0;bottom=0;right=0;pointerEvents=1;fontSize=16;fontFamily=Project Font;" vertex="1" parent="Lc_aUcKj_QxeDapBAkYR-65">
          <mxGeometry x="40" width="40" height="40" as="geometry">
            <mxRectangle width="40" height="40" as="alternateBounds" />
          </mxGeometry>
        </mxCell>
        <mxCell id="Lc_aUcKj_QxeDapBAkYR-68" value="" style="shape=partialRectangle;html=1;whiteSpace=wrap;connectable=0;strokeColor=inherit;overflow=hidden;fillColor=none;top=0;left=0;bottom=0;right=0;pointerEvents=1;fontSize=16;fontFamily=Project Font;" vertex="1" parent="Lc_aUcKj_QxeDapBAkYR-65">
          <mxGeometry x="80" width="40" height="40" as="geometry">
            <mxRectangle width="40" height="40" as="alternateBounds" />
          </mxGeometry>
        </mxCell>
        <mxCell id="Lc_aUcKj_QxeDapBAkYR-69" value="" style="shape=tableRow;horizontal=0;startSize=0;swimlaneHead=0;swimlaneBody=0;strokeColor=inherit;top=0;left=0;bottom=0;right=0;collapsible=0;dropTarget=0;fillColor=none;points=[[0,0.5],[1,0.5]];portConstraint=eastwest;fontSize=16;fontFamily=Project Font;" vertex="1" parent="Lc_aUcKj_QxeDapBAkYR-60">
          <mxGeometry y="80" width="120" height="40" as="geometry" />
        </mxCell>
        <mxCell id="Lc_aUcKj_QxeDapBAkYR-70" value="" style="shape=partialRectangle;html=1;whiteSpace=wrap;connectable=0;strokeColor=inherit;overflow=hidden;fillColor=none;top=0;left=0;bottom=0;right=0;pointerEvents=1;fontSize=16;fontFamily=Project Font;" vertex="1" parent="Lc_aUcKj_QxeDapBAkYR-69">
          <mxGeometry width="40" height="40" as="geometry">
            <mxRectangle width="40" height="40" as="alternateBounds" />
          </mxGeometry>
        </mxCell>
        <mxCell id="Lc_aUcKj_QxeDapBAkYR-71" value="" style="shape=partialRectangle;html=1;whiteSpace=wrap;connectable=0;strokeColor=inherit;overflow=hidden;fillColor=none;top=0;left=0;bottom=0;right=0;pointerEvents=1;fontSize=16;fontFamily=Project Font;" vertex="1" parent="Lc_aUcKj_QxeDapBAkYR-69">
          <mxGeometry x="40" width="40" height="40" as="geometry">
            <mxRectangle width="40" height="40" as="alternateBounds" />
          </mxGeometry>
        </mxCell>
        <mxCell id="Lc_aUcKj_QxeDapBAkYR-72" value="" style="shape=partialRectangle;html=1;whiteSpace=wrap;connectable=0;strokeColor=inherit;overflow=hidden;fillColor=none;top=0;left=0;bottom=0;right=0;pointerEvents=1;fontSize=16;fontFamily=Project Font;" vertex="1" parent="Lc_aUcKj_QxeDapBAkYR-69">
          <mxGeometry x="80" width="40" height="40" as="geometry">
            <mxRectangle width="40" height="40" as="alternateBounds" />
          </mxGeometry>
        </mxCell>
        <mxCell id="Lc_aUcKj_QxeDapBAkYR-73" value="Image" style="text;html=1;whiteSpace=wrap;strokeColor=none;fillColor=none;align=center;verticalAlign=middle;rounded=0;fontFamily=Project Font;" vertex="1" parent="1">
          <mxGeometry x="90" y="720" width="60" height="30" as="geometry" />
        </mxCell>
        <mxCell id="Lc_aUcKj_QxeDapBAkYR-87" style="edgeStyle=orthogonalEdgeStyle;rounded=0;orthogonalLoop=1;jettySize=auto;html=1;entryX=0.488;entryY=0.941;entryDx=0;entryDy=0;entryPerimeter=0;fontFamily=Project Font;" edge="1" parent="1" source="Lc_aUcKj_QxeDapBAkYR-60">
          <mxGeometry relative="1" as="geometry">
            <mxPoint x="119.5200000000001" y="559.2330000000001" as="targetPoint" />
          </mxGeometry>
        </mxCell>
        <mxCell id="Lc_aUcKj_QxeDapBAkYR-89" value="" style="shape=table;startSize=0;container=1;collapsible=0;childLayout=tableLayout;fontSize=16;fontFamily=Project Font;" vertex="1" parent="1">
          <mxGeometry x="90" y="420" width="60" height="60" as="geometry" />
        </mxCell>
        <mxCell id="Lc_aUcKj_QxeDapBAkYR-90" value="" style="shape=tableRow;horizontal=0;startSize=0;swimlaneHead=0;swimlaneBody=0;strokeColor=inherit;top=0;left=0;bottom=0;right=0;collapsible=0;dropTarget=0;fillColor=none;points=[[0,0.5],[1,0.5]];portConstraint=eastwest;fontSize=16;fontFamily=Project Font;" vertex="1" parent="Lc_aUcKj_QxeDapBAkYR-89">
          <mxGeometry width="60" height="20" as="geometry" />
        </mxCell>
        <mxCell id="Lc_aUcKj_QxeDapBAkYR-91" value="" style="shape=partialRectangle;html=1;whiteSpace=wrap;connectable=0;strokeColor=inherit;overflow=hidden;fillColor=none;top=0;left=0;bottom=0;right=0;pointerEvents=1;fontSize=16;fontFamily=Project Font;" vertex="1" parent="Lc_aUcKj_QxeDapBAkYR-90">
          <mxGeometry width="20" height="20" as="geometry">
            <mxRectangle width="20" height="20" as="alternateBounds" />
          </mxGeometry>
        </mxCell>
        <mxCell id="Lc_aUcKj_QxeDapBAkYR-92" value="" style="shape=partialRectangle;html=1;whiteSpace=wrap;connectable=0;strokeColor=inherit;overflow=hidden;fillColor=none;top=0;left=0;bottom=0;right=0;pointerEvents=1;fontSize=16;fontFamily=Project Font;" vertex="1" parent="Lc_aUcKj_QxeDapBAkYR-90">
          <mxGeometry x="20" width="21" height="20" as="geometry">
            <mxRectangle width="21" height="20" as="alternateBounds" />
          </mxGeometry>
        </mxCell>
        <mxCell id="Lc_aUcKj_QxeDapBAkYR-93" value="" style="shape=partialRectangle;html=1;whiteSpace=wrap;connectable=0;strokeColor=inherit;overflow=hidden;fillColor=none;top=0;left=0;bottom=0;right=0;pointerEvents=1;fontSize=16;fontFamily=Project Font;" vertex="1" parent="Lc_aUcKj_QxeDapBAkYR-90">
          <mxGeometry x="41" width="19" height="20" as="geometry">
            <mxRectangle width="19" height="20" as="alternateBounds" />
          </mxGeometry>
        </mxCell>
        <mxCell id="Lc_aUcKj_QxeDapBAkYR-94" value="" style="shape=tableRow;horizontal=0;startSize=0;swimlaneHead=0;swimlaneBody=0;strokeColor=inherit;top=0;left=0;bottom=0;right=0;collapsible=0;dropTarget=0;fillColor=none;points=[[0,0.5],[1,0.5]];portConstraint=eastwest;fontSize=16;fontFamily=Project Font;" vertex="1" parent="Lc_aUcKj_QxeDapBAkYR-89">
          <mxGeometry y="20" width="60" height="21" as="geometry" />
        </mxCell>
        <mxCell id="Lc_aUcKj_QxeDapBAkYR-95" value="" style="shape=partialRectangle;html=1;whiteSpace=wrap;connectable=0;strokeColor=inherit;overflow=hidden;fillColor=none;top=0;left=0;bottom=0;right=0;pointerEvents=1;fontSize=16;fontFamily=Project Font;" vertex="1" parent="Lc_aUcKj_QxeDapBAkYR-94">
          <mxGeometry width="20" height="21" as="geometry">
            <mxRectangle width="20" height="21" as="alternateBounds" />
          </mxGeometry>
        </mxCell>
        <mxCell id="Lc_aUcKj_QxeDapBAkYR-96" value="" style="shape=partialRectangle;html=1;whiteSpace=wrap;connectable=0;strokeColor=inherit;overflow=hidden;fillColor=none;top=0;left=0;bottom=0;right=0;pointerEvents=1;fontSize=16;fontFamily=Project Font;" vertex="1" parent="Lc_aUcKj_QxeDapBAkYR-94">
          <mxGeometry x="20" width="21" height="21" as="geometry">
            <mxRectangle width="21" height="21" as="alternateBounds" />
          </mxGeometry>
        </mxCell>
        <mxCell id="Lc_aUcKj_QxeDapBAkYR-97" value="" style="shape=partialRectangle;html=1;whiteSpace=wrap;connectable=0;strokeColor=inherit;overflow=hidden;fillColor=none;top=0;left=0;bottom=0;right=0;pointerEvents=1;fontSize=16;fontFamily=Project Font;" vertex="1" parent="Lc_aUcKj_QxeDapBAkYR-94">
          <mxGeometry x="41" width="19" height="21" as="geometry">
            <mxRectangle width="19" height="21" as="alternateBounds" />
          </mxGeometry>
        </mxCell>
        <mxCell id="Lc_aUcKj_QxeDapBAkYR-98" value="" style="shape=tableRow;horizontal=0;startSize=0;swimlaneHead=0;swimlaneBody=0;strokeColor=inherit;top=0;left=0;bottom=0;right=0;collapsible=0;dropTarget=0;fillColor=none;points=[[0,0.5],[1,0.5]];portConstraint=eastwest;fontSize=16;fontFamily=Project Font;" vertex="1" parent="Lc_aUcKj_QxeDapBAkYR-89">
          <mxGeometry y="41" width="60" height="19" as="geometry" />
        </mxCell>
        <mxCell id="Lc_aUcKj_QxeDapBAkYR-99" value="" style="shape=partialRectangle;html=1;whiteSpace=wrap;connectable=0;strokeColor=inherit;overflow=hidden;fillColor=none;top=0;left=0;bottom=0;right=0;pointerEvents=1;fontSize=16;fontFamily=Project Font;" vertex="1" parent="Lc_aUcKj_QxeDapBAkYR-98">
          <mxGeometry width="20" height="19" as="geometry">
            <mxRectangle width="20" height="19" as="alternateBounds" />
          </mxGeometry>
        </mxCell>
        <mxCell id="Lc_aUcKj_QxeDapBAkYR-100" value="" style="shape=partialRectangle;html=1;whiteSpace=wrap;connectable=0;strokeColor=inherit;overflow=hidden;fillColor=none;top=0;left=0;bottom=0;right=0;pointerEvents=1;fontSize=16;fontFamily=Project Font;" vertex="1" parent="Lc_aUcKj_QxeDapBAkYR-98">
          <mxGeometry x="20" width="21" height="19" as="geometry">
            <mxRectangle width="21" height="19" as="alternateBounds" />
          </mxGeometry>
        </mxCell>
        <mxCell id="Lc_aUcKj_QxeDapBAkYR-101" value="" style="shape=partialRectangle;html=1;whiteSpace=wrap;connectable=0;strokeColor=inherit;overflow=hidden;fillColor=none;top=0;left=0;bottom=0;right=0;pointerEvents=1;fontSize=16;fontFamily=Project Font;" vertex="1" parent="Lc_aUcKj_QxeDapBAkYR-98">
          <mxGeometry x="41" width="19" height="19" as="geometry">
            <mxRectangle width="19" height="19" as="alternateBounds" />
          </mxGeometry>
        </mxCell>
        <mxCell id="Lc_aUcKj_QxeDapBAkYR-103" value="Feature map" style="text;html=1;whiteSpace=wrap;strokeColor=none;fillColor=none;align=center;verticalAlign=middle;rounded=0;fontFamily=Project Font;" vertex="1" parent="1">
          <mxGeometry x="90" y="390" width="60" height="30" as="geometry" />
        </mxCell>
        <mxCell id="Lc_aUcKj_QxeDapBAkYR-122" style="edgeStyle=orthogonalEdgeStyle;rounded=0;orthogonalLoop=1;jettySize=auto;html=1;exitX=0.5;exitY=1;exitDx=0;exitDy=0;entryX=0.5;entryY=0;entryDx=0;entryDy=0;fontFamily=Project Font;" edge="1" parent="1" source="Lc_aUcKj_QxeDapBAkYR-104">
          <mxGeometry relative="1" as="geometry">
            <mxPoint x="320" y="520" as="targetPoint" />
          </mxGeometry>
        </mxCell>
        <mxCell id="Lc_aUcKj_QxeDapBAkYR-104" value="" style="shape=table;startSize=0;container=1;collapsible=0;childLayout=tableLayout;fontSize=16;fontFamily=Project Font;" vertex="1" parent="1">
          <mxGeometry x="290" y="420" width="60" height="60" as="geometry" />
        </mxCell>
        <mxCell id="Lc_aUcKj_QxeDapBAkYR-105" value="" style="shape=tableRow;horizontal=0;startSize=0;swimlaneHead=0;swimlaneBody=0;strokeColor=inherit;top=0;left=0;bottom=0;right=0;collapsible=0;dropTarget=0;fillColor=none;points=[[0,0.5],[1,0.5]];portConstraint=eastwest;fontSize=16;fontFamily=Project Font;" vertex="1" parent="Lc_aUcKj_QxeDapBAkYR-104">
          <mxGeometry width="60" height="20" as="geometry" />
        </mxCell>
        <mxCell id="Lc_aUcKj_QxeDapBAkYR-106" value="" style="shape=partialRectangle;html=1;whiteSpace=wrap;connectable=0;strokeColor=inherit;overflow=hidden;fillColor=none;top=0;left=0;bottom=0;right=0;pointerEvents=1;fontSize=16;fontFamily=Project Font;" vertex="1" parent="Lc_aUcKj_QxeDapBAkYR-105">
          <mxGeometry width="20" height="20" as="geometry">
            <mxRectangle width="20" height="20" as="alternateBounds" />
          </mxGeometry>
        </mxCell>
        <mxCell id="Lc_aUcKj_QxeDapBAkYR-107" value="" style="shape=partialRectangle;html=1;whiteSpace=wrap;connectable=0;strokeColor=inherit;overflow=hidden;fillColor=none;top=0;left=0;bottom=0;right=0;pointerEvents=1;fontSize=16;fontFamily=Project Font;" vertex="1" parent="Lc_aUcKj_QxeDapBAkYR-105">
          <mxGeometry x="20" width="21" height="20" as="geometry">
            <mxRectangle width="21" height="20" as="alternateBounds" />
          </mxGeometry>
        </mxCell>
        <mxCell id="Lc_aUcKj_QxeDapBAkYR-108" value="" style="shape=partialRectangle;html=1;whiteSpace=wrap;connectable=0;strokeColor=inherit;overflow=hidden;fillColor=none;top=0;left=0;bottom=0;right=0;pointerEvents=1;fontSize=16;fontFamily=Project Font;" vertex="1" parent="Lc_aUcKj_QxeDapBAkYR-105">
          <mxGeometry x="41" width="19" height="20" as="geometry">
            <mxRectangle width="19" height="20" as="alternateBounds" />
          </mxGeometry>
        </mxCell>
        <mxCell id="Lc_aUcKj_QxeDapBAkYR-109" value="" style="shape=tableRow;horizontal=0;startSize=0;swimlaneHead=0;swimlaneBody=0;strokeColor=inherit;top=0;left=0;bottom=0;right=0;collapsible=0;dropTarget=0;fillColor=none;points=[[0,0.5],[1,0.5]];portConstraint=eastwest;fontSize=16;fontFamily=Project Font;" vertex="1" parent="Lc_aUcKj_QxeDapBAkYR-104">
          <mxGeometry y="20" width="60" height="21" as="geometry" />
        </mxCell>
        <mxCell id="Lc_aUcKj_QxeDapBAkYR-110" value="" style="shape=partialRectangle;html=1;whiteSpace=wrap;connectable=0;strokeColor=inherit;overflow=hidden;fillColor=none;top=0;left=0;bottom=0;right=0;pointerEvents=1;fontSize=16;fontFamily=Project Font;" vertex="1" parent="Lc_aUcKj_QxeDapBAkYR-109">
          <mxGeometry width="20" height="21" as="geometry">
            <mxRectangle width="20" height="21" as="alternateBounds" />
          </mxGeometry>
        </mxCell>
        <mxCell id="Lc_aUcKj_QxeDapBAkYR-111" value="" style="shape=partialRectangle;html=1;whiteSpace=wrap;connectable=0;strokeColor=inherit;overflow=hidden;fillColor=none;top=0;left=0;bottom=0;right=0;pointerEvents=1;fontSize=16;fontFamily=Project Font;" vertex="1" parent="Lc_aUcKj_QxeDapBAkYR-109">
          <mxGeometry x="20" width="21" height="21" as="geometry">
            <mxRectangle width="21" height="21" as="alternateBounds" />
          </mxGeometry>
        </mxCell>
        <mxCell id="Lc_aUcKj_QxeDapBAkYR-112" value="" style="shape=partialRectangle;html=1;whiteSpace=wrap;connectable=0;strokeColor=inherit;overflow=hidden;fillColor=none;top=0;left=0;bottom=0;right=0;pointerEvents=1;fontSize=16;fontFamily=Project Font;" vertex="1" parent="Lc_aUcKj_QxeDapBAkYR-109">
          <mxGeometry x="41" width="19" height="21" as="geometry">
            <mxRectangle width="19" height="21" as="alternateBounds" />
          </mxGeometry>
        </mxCell>
        <mxCell id="Lc_aUcKj_QxeDapBAkYR-113" value="" style="shape=tableRow;horizontal=0;startSize=0;swimlaneHead=0;swimlaneBody=0;strokeColor=inherit;top=0;left=0;bottom=0;right=0;collapsible=0;dropTarget=0;fillColor=none;points=[[0,0.5],[1,0.5]];portConstraint=eastwest;fontSize=16;fontFamily=Project Font;" vertex="1" parent="Lc_aUcKj_QxeDapBAkYR-104">
          <mxGeometry y="41" width="60" height="19" as="geometry" />
        </mxCell>
        <mxCell id="Lc_aUcKj_QxeDapBAkYR-114" value="" style="shape=partialRectangle;html=1;whiteSpace=wrap;connectable=0;strokeColor=inherit;overflow=hidden;fillColor=none;top=0;left=0;bottom=0;right=0;pointerEvents=1;fontSize=16;fontFamily=Project Font;" vertex="1" parent="Lc_aUcKj_QxeDapBAkYR-113">
          <mxGeometry width="20" height="19" as="geometry">
            <mxRectangle width="20" height="19" as="alternateBounds" />
          </mxGeometry>
        </mxCell>
        <mxCell id="Lc_aUcKj_QxeDapBAkYR-115" value="" style="shape=partialRectangle;html=1;whiteSpace=wrap;connectable=0;strokeColor=inherit;overflow=hidden;fillColor=none;top=0;left=0;bottom=0;right=0;pointerEvents=1;fontSize=16;fontFamily=Project Font;" vertex="1" parent="Lc_aUcKj_QxeDapBAkYR-113">
          <mxGeometry x="20" width="21" height="19" as="geometry">
            <mxRectangle width="21" height="19" as="alternateBounds" />
          </mxGeometry>
        </mxCell>
        <mxCell id="Lc_aUcKj_QxeDapBAkYR-116" value="" style="shape=partialRectangle;html=1;whiteSpace=wrap;connectable=0;strokeColor=inherit;overflow=hidden;fillColor=none;top=0;left=0;bottom=0;right=0;pointerEvents=1;fontSize=16;fontFamily=Project Font;" vertex="1" parent="Lc_aUcKj_QxeDapBAkYR-113">
          <mxGeometry x="41" width="19" height="19" as="geometry">
            <mxRectangle width="19" height="19" as="alternateBounds" />
          </mxGeometry>
        </mxCell>
        <mxCell id="Lc_aUcKj_QxeDapBAkYR-117" value="Feature map" style="text;html=1;whiteSpace=wrap;strokeColor=none;fillColor=none;align=center;verticalAlign=middle;rounded=0;fontFamily=Project Font;" vertex="1" parent="1">
          <mxGeometry x="290" y="390" width="60" height="30" as="geometry" />
        </mxCell>
        <mxCell id="Lc_aUcKj_QxeDapBAkYR-119" style="edgeStyle=orthogonalEdgeStyle;rounded=0;orthogonalLoop=1;jettySize=auto;html=1;entryX=-0.053;entryY=0.505;entryDx=0;entryDy=0;entryPerimeter=0;fontFamily=Project Font;" edge="1" parent="1" source="Lc_aUcKj_QxeDapBAkYR-94" target="LNUbjjZYUeOd3OKvUDED-6">
          <mxGeometry relative="1" as="geometry" />
        </mxCell>
        <mxCell id="Lc_aUcKj_QxeDapBAkYR-120" style="edgeStyle=orthogonalEdgeStyle;rounded=0;orthogonalLoop=1;jettySize=auto;html=1;entryX=0;entryY=0.5;entryDx=0;entryDy=0;fontFamily=Project Font;" edge="1" parent="1" source="LNUbjjZYUeOd3OKvUDED-6" target="Lc_aUcKj_QxeDapBAkYR-104">
          <mxGeometry relative="1" as="geometry" />
        </mxCell>
        <mxCell id="Lc_aUcKj_QxeDapBAkYR-121" style="edgeStyle=orthogonalEdgeStyle;rounded=0;orthogonalLoop=1;jettySize=auto;html=1;entryX=0.5;entryY=1;entryDx=0;entryDy=0;entryPerimeter=0;fontFamily=Project Font;" edge="1" parent="1" target="Lc_aUcKj_QxeDapBAkYR-98">
          <mxGeometry relative="1" as="geometry">
            <mxPoint x="120" y="520" as="sourcePoint" />
          </mxGeometry>
        </mxCell>
        <mxCell id="Lc_aUcKj_QxeDapBAkYR-128" value="" style="edgeStyle=orthogonalEdgeStyle;rounded=0;orthogonalLoop=1;jettySize=auto;html=1;fontFamily=Project Font;" edge="1" parent="1" source="Lc_aUcKj_QxeDapBAkYR-123" target="Lc_aUcKj_QxeDapBAkYR-126">
          <mxGeometry relative="1" as="geometry" />
        </mxCell>
        <mxCell id="Lc_aUcKj_QxeDapBAkYR-123" value="Max pool" style="whiteSpace=wrap;html=1;aspect=fixed;fontFamily=Project Font;" vertex="1" parent="1">
          <mxGeometry x="300" y="520" width="40" height="40" as="geometry" />
        </mxCell>
        <mxCell id="Lc_aUcKj_QxeDapBAkYR-124" value="&lt;div&gt;&lt;font&gt;Filter /&lt;/font&gt;&lt;/div&gt;&lt;div&gt;&lt;font&gt;Kernel&lt;/font&gt;&lt;/div&gt;" style="whiteSpace=wrap;html=1;aspect=fixed;fontFamily=Project Font;" vertex="1" parent="1">
          <mxGeometry x="100" y="520" width="40" height="40" as="geometry" />
        </mxCell>
        <mxCell id="Lc_aUcKj_QxeDapBAkYR-126" value="Futher in network" style="whiteSpace=wrap;html=1;aspect=fixed;fontFamily=Project Font;" vertex="1" parent="1">
          <mxGeometry x="295" y="635" width="50" height="50" as="geometry" />
        </mxCell>
        <mxCell id="Lc_aUcKj_QxeDapBAkYR-129" value="Activation function" style="text;html=1;whiteSpace=wrap;strokeColor=none;fillColor=none;align=center;verticalAlign=middle;rounded=0;fontFamily=Project Font;" vertex="1" parent="1">
          <mxGeometry x="190" y="390" width="60" height="30" as="geometry" />
        </mxCell>
      </root>
    </mxGraphModel>
  </diagram>
</mxfile>
